<svg width="571" height="256" viewBox="0 0 571 256" fill="none" xmlns="http://www.w3.org/2000/svg">
<path d="M570.006 184.472H294.347V251.247H570.006V184.472Z" fill="#008444"/>
<path d="M564.87 119.41H301.196V124.546H564.87V119.41Z" fill="#E1E4BB"/>
<path d="M332.944 206.513C332.755 204.922 331.991 203.687 330.652 202.808C329.312 201.929 327.669 201.49 325.723 201.49C324.299 201.49 323.054 201.72 321.987 202.18C320.93 202.641 320.103 203.274 319.506 204.08C318.92 204.886 318.627 205.801 318.627 206.827C318.627 207.685 318.831 208.423 319.239 209.04C319.658 209.647 320.192 210.155 320.841 210.563C321.489 210.961 322.17 211.29 322.881 211.552C323.593 211.803 324.247 212.007 324.844 212.164L328.109 213.043C328.946 213.263 329.877 213.567 330.903 213.954C331.939 214.341 332.928 214.87 333.87 215.539C334.822 216.199 335.607 217.046 336.224 218.082C336.842 219.118 337.151 220.39 337.151 221.897C337.151 223.634 336.695 225.204 335.785 226.606C334.885 228.009 333.566 229.123 331.829 229.95C330.102 230.777 328.004 231.19 325.534 231.19C323.232 231.19 321.238 230.819 319.553 230.076C317.879 229.332 316.56 228.296 315.598 226.967C314.645 225.638 314.106 224.095 313.981 222.336H317.999C318.104 223.55 318.512 224.555 319.224 225.35C319.946 226.135 320.856 226.721 321.955 227.109C323.064 227.485 324.257 227.674 325.534 227.674C327.02 227.674 328.355 227.433 329.537 226.952C330.72 226.46 331.656 225.78 332.347 224.911C333.038 224.032 333.383 223.006 333.383 221.834C333.383 220.767 333.085 219.898 332.488 219.228C331.892 218.559 331.107 218.014 330.134 217.596C329.16 217.177 328.109 216.811 326.978 216.497L323.023 215.367C320.511 214.645 318.523 213.614 317.057 212.274C315.592 210.935 314.86 209.182 314.86 207.015C314.86 205.215 315.346 203.646 316.32 202.306C317.303 200.956 318.622 199.91 320.275 199.167C321.939 198.413 323.797 198.036 325.848 198.036C327.92 198.036 329.762 198.408 331.374 199.151C332.985 199.883 334.262 200.888 335.204 202.165C336.156 203.442 336.659 204.891 336.711 206.513H332.944ZM353.535 206.513V209.653H341.04V206.513H353.535ZM344.682 200.736H348.386V223.718C348.386 224.764 348.538 225.549 348.842 226.073C349.156 226.585 349.553 226.931 350.035 227.109C350.526 227.276 351.045 227.36 351.589 227.36C351.997 227.36 352.332 227.339 352.593 227.297C352.855 227.245 353.064 227.203 353.221 227.171L353.975 230.499C353.724 230.594 353.373 230.688 352.923 230.782C352.473 230.887 351.903 230.939 351.212 230.939C350.165 230.939 349.14 230.714 348.135 230.264C347.141 229.814 346.314 229.128 345.655 228.207C345.006 227.287 344.682 226.125 344.682 224.723V200.736ZM368.958 231.127C366.635 231.127 364.631 230.614 362.946 229.589C361.272 228.553 359.979 227.109 359.069 225.256C358.169 223.393 357.719 221.227 357.719 218.757C357.719 216.288 358.169 214.111 359.069 212.227C359.979 210.333 361.245 208.857 362.868 207.8C364.5 206.733 366.405 206.199 368.582 206.199C369.837 206.199 371.078 206.408 372.302 206.827C373.526 207.246 374.641 207.926 375.646 208.868C376.65 209.799 377.451 211.034 378.047 212.572C378.644 214.111 378.942 216.005 378.942 218.255V219.825H360.356V216.622H375.175C375.175 215.262 374.903 214.048 374.358 212.981C373.825 211.913 373.061 211.071 372.066 210.453C371.083 209.836 369.921 209.527 368.582 209.527C367.106 209.527 365.829 209.893 364.751 210.626C363.684 211.348 362.862 212.29 362.287 213.452C361.711 214.613 361.423 215.859 361.423 217.188V219.323C361.423 221.143 361.737 222.687 362.365 223.953C363.004 225.209 363.888 226.167 365.018 226.826C366.148 227.475 367.462 227.799 368.958 227.799C369.932 227.799 370.811 227.663 371.596 227.391C372.391 227.109 373.076 226.69 373.652 226.135C374.228 225.57 374.672 224.869 374.986 224.032L378.565 225.037C378.189 226.25 377.555 227.318 376.666 228.239C375.776 229.149 374.678 229.861 373.369 230.374C372.061 230.876 370.591 231.127 368.958 231.127ZM388.282 198.476V230.625H384.578V198.476H388.282ZM398.772 198.476V230.625H395.068V198.476H398.772ZM412.653 231.19C411.125 231.19 409.739 230.902 408.493 230.327C407.248 229.741 406.259 228.898 405.526 227.799C404.794 226.69 404.428 225.35 404.428 223.781C404.428 222.399 404.7 221.28 405.244 220.421C405.788 219.553 406.515 218.873 407.426 218.381C408.336 217.889 409.341 217.522 410.44 217.282C411.549 217.031 412.664 216.832 413.783 216.685C415.249 216.497 416.436 216.356 417.347 216.261C418.268 216.157 418.938 215.984 419.356 215.743C419.785 215.503 420 215.084 420 214.488V214.362C420 212.813 419.576 211.61 418.728 210.752C417.891 209.893 416.62 209.464 414.914 209.464C413.145 209.464 411.758 209.851 410.754 210.626C409.749 211.4 409.043 212.227 408.635 213.106L405.118 211.85C405.746 210.385 406.583 209.245 407.63 208.428C408.687 207.601 409.838 207.026 411.083 206.701C412.339 206.367 413.574 206.199 414.788 206.199C415.563 206.199 416.452 206.293 417.457 206.482C418.472 206.66 419.45 207.031 420.392 207.596C421.345 208.161 422.135 209.014 422.763 210.155C423.391 211.296 423.704 212.824 423.704 214.739V230.625H420V227.36H419.811C419.56 227.883 419.142 228.443 418.556 229.039C417.97 229.636 417.19 230.144 416.217 230.562C415.243 230.981 414.056 231.19 412.653 231.19ZM413.218 227.862C414.683 227.862 415.918 227.574 416.923 226.999C417.938 226.423 418.702 225.68 419.215 224.77C419.738 223.859 420 222.902 420 221.897V218.506C419.843 218.695 419.497 218.867 418.964 219.024C418.44 219.171 417.833 219.302 417.143 219.417C416.463 219.521 415.798 219.616 415.149 219.699C414.511 219.773 413.993 219.835 413.595 219.888C412.632 220.013 411.732 220.217 410.895 220.5C410.068 220.772 409.399 221.185 408.886 221.74C408.383 222.284 408.132 223.027 408.132 223.969C408.132 225.256 408.608 226.23 409.561 226.889C410.524 227.538 411.743 227.862 413.218 227.862ZM443.401 198.476H448.048L458.974 225.162H459.35L470.276 198.476H474.923V230.625H471.281V206.199H470.967L460.92 230.625H457.404L447.357 206.199H447.043V230.625H443.401V198.476ZM489.321 231.19C487.793 231.19 486.407 230.902 485.161 230.327C483.916 229.741 482.927 228.898 482.195 227.799C481.462 226.69 481.096 225.35 481.096 223.781C481.096 222.399 481.368 221.28 481.912 220.421C482.456 219.553 483.184 218.873 484.094 218.381C485.004 217.889 486.009 217.522 487.108 217.282C488.217 217.031 489.332 216.832 490.452 216.685C491.917 216.497 493.105 216.356 494.015 216.261C494.936 216.157 495.606 215.984 496.024 215.743C496.453 215.503 496.668 215.084 496.668 214.488V214.362C496.668 212.813 496.244 211.61 495.396 210.752C494.559 209.893 493.288 209.464 491.582 209.464C489.813 209.464 488.427 209.851 487.422 210.626C486.417 211.4 485.711 212.227 485.303 213.106L481.786 211.85C482.414 210.385 483.252 209.245 484.298 208.428C485.355 207.601 486.506 207.026 487.752 206.701C489.007 206.367 490.242 206.199 491.456 206.199C492.231 206.199 493.12 206.293 494.125 206.482C495.14 206.66 496.119 207.031 497.06 207.596C498.013 208.161 498.803 209.014 499.431 210.155C500.059 211.296 500.373 212.824 500.373 214.739V230.625H496.668V227.36H496.48C496.228 227.883 495.81 228.443 495.224 229.039C494.638 229.636 493.858 230.144 492.885 230.562C491.911 230.981 490.724 231.19 489.321 231.19ZM489.886 227.862C491.352 227.862 492.586 227.574 493.591 226.999C494.606 226.423 495.37 225.68 495.883 224.77C496.406 223.859 496.668 222.902 496.668 221.897V218.506C496.511 218.695 496.166 218.867 495.632 219.024C495.109 219.171 494.502 219.302 493.811 219.417C493.131 219.521 492.466 219.616 491.817 219.699C491.179 219.773 490.661 219.835 490.263 219.888C489.3 220.013 488.4 220.217 487.563 220.5C486.736 220.772 486.067 221.185 485.554 221.74C485.052 222.284 484.8 223.027 484.8 223.969C484.8 225.256 485.277 226.23 486.229 226.889C487.192 227.538 488.411 227.862 489.886 227.862ZM507.134 230.625V206.513H510.714V210.155H510.965C511.404 208.962 512.2 207.994 513.351 207.251C514.502 206.508 515.8 206.136 517.244 206.136C517.516 206.136 517.856 206.142 518.264 206.152C518.672 206.163 518.981 206.178 519.19 206.199V209.967C519.065 209.935 518.777 209.888 518.327 209.825C517.887 209.752 517.422 209.715 516.93 209.715C515.758 209.715 514.711 209.961 513.79 210.453C512.88 210.935 512.158 211.604 511.624 212.463C511.101 213.31 510.839 214.278 510.839 215.367V230.625H507.134ZM523.582 230.625V206.513H527.287V230.625H523.582ZM525.466 202.494C524.743 202.494 524.121 202.249 523.598 201.757C523.085 201.265 522.828 200.674 522.828 199.983C522.828 199.292 523.085 198.701 523.598 198.209C524.121 197.717 524.743 197.471 525.466 197.471C526.188 197.471 526.805 197.717 527.318 198.209C527.841 198.701 528.103 199.292 528.103 199.983C528.103 200.674 527.841 201.265 527.318 201.757C526.805 202.249 526.188 202.494 525.466 202.494ZM551.151 211.913L547.823 212.855C547.614 212.3 547.305 211.761 546.897 211.238C546.499 210.704 545.955 210.265 545.264 209.92C544.574 209.574 543.689 209.401 542.612 209.401C541.136 209.401 539.906 209.742 538.923 210.422C537.949 211.092 537.463 211.945 537.463 212.981C537.463 213.902 537.798 214.629 538.467 215.163C539.137 215.696 540.184 216.141 541.607 216.497L545.186 217.376C547.342 217.899 548.948 218.7 550.005 219.778C551.062 220.845 551.591 222.221 551.591 223.906C551.591 225.288 551.193 226.523 550.398 227.611C549.613 228.699 548.514 229.557 547.101 230.185C545.688 230.813 544.045 231.127 542.172 231.127C539.713 231.127 537.677 230.594 536.066 229.526C534.454 228.459 533.434 226.899 533.004 224.848L536.521 223.969C536.856 225.267 537.489 226.24 538.42 226.889C539.362 227.538 540.592 227.862 542.109 227.862C543.836 227.862 545.207 227.496 546.222 226.763C547.248 226.02 547.76 225.131 547.76 224.095C547.76 223.257 547.467 222.556 546.881 221.991C546.295 221.416 545.395 220.986 544.181 220.704L540.163 219.762C537.954 219.239 536.332 218.428 535.296 217.329C534.271 216.22 533.758 214.833 533.758 213.169C533.758 211.808 534.14 210.605 534.904 209.558C535.678 208.512 536.73 207.69 538.059 207.094C539.399 206.497 540.916 206.199 542.612 206.199C544.998 206.199 546.871 206.722 548.231 207.769C549.602 208.815 550.576 210.197 551.151 211.913Z" fill="white"/>
<path d="M353.97 141.597C353.897 140.866 353.586 140.298 353.036 139.893C352.487 139.488 351.74 139.286 350.798 139.286C350.157 139.286 349.617 139.377 349.176 139.558C348.735 139.733 348.396 139.978 348.161 140.292C347.931 140.606 347.816 140.963 347.816 141.361C347.804 141.694 347.874 141.984 348.025 142.231C348.182 142.479 348.396 142.694 348.668 142.875C348.94 143.05 349.254 143.204 349.611 143.337C349.967 143.464 350.348 143.573 350.753 143.663L352.42 144.062C353.23 144.243 353.973 144.485 354.65 144.787C355.326 145.089 355.912 145.461 356.408 145.902C356.903 146.343 357.287 146.862 357.559 147.461C357.837 148.059 357.979 148.744 357.985 149.518C357.979 150.654 357.689 151.638 357.115 152.472C356.547 153.3 355.725 153.943 354.65 154.403C353.58 154.856 352.29 155.082 350.78 155.082C349.281 155.082 347.976 154.853 346.865 154.393C345.759 153.934 344.895 153.255 344.273 152.354C343.657 151.448 343.333 150.327 343.303 148.992H347.1C347.143 149.614 347.321 150.134 347.635 150.551C347.955 150.962 348.381 151.273 348.913 151.484C349.451 151.69 350.058 151.792 350.734 151.792C351.399 151.792 351.976 151.696 352.465 151.502C352.961 151.309 353.345 151.04 353.616 150.696C353.888 150.352 354.024 149.956 354.024 149.509C354.024 149.092 353.9 148.741 353.653 148.457C353.411 148.173 353.055 147.932 352.583 147.732C352.118 147.533 351.547 147.352 350.87 147.189L348.849 146.681C347.285 146.3 346.049 145.705 345.143 144.896C344.237 144.086 343.786 142.996 343.792 141.624C343.786 140.5 344.086 139.519 344.69 138.679C345.3 137.839 346.137 137.183 347.2 136.712C348.263 136.241 349.472 136.005 350.825 136.005C352.203 136.005 353.405 136.241 354.432 136.712C355.465 137.183 356.269 137.839 356.843 138.679C357.417 139.519 357.713 140.491 357.731 141.597H353.97ZM363.4 154.819H359.194L365.602 136.259H370.659L377.057 154.819H372.852L368.203 140.5H368.058L363.4 154.819ZM363.137 147.524H373.069V150.587H363.137V147.524ZM379.291 154.819V136.259H383.215V151.584H391.172V154.819H379.291ZM395.13 136.259L399.616 150.361H399.788L404.283 136.259H408.634L402.235 154.819H397.178L390.771 136.259H395.13ZM411.599 154.819H407.394L413.802 136.259H418.858L425.257 154.819H421.052L416.403 140.5H416.258L411.599 154.819ZM411.336 147.524H421.269V150.587H411.336V147.524ZM434.07 154.819H427.491V136.259H434.125C435.991 136.259 437.599 136.631 438.946 137.374C440.293 138.111 441.329 139.171 442.054 140.555C442.785 141.938 443.151 143.594 443.151 145.521C443.151 147.454 442.785 149.116 442.054 150.506C441.329 151.895 440.287 152.962 438.928 153.705C437.574 154.448 435.955 154.819 434.07 154.819ZM431.415 151.457H433.907C435.067 151.457 436.043 151.252 436.834 150.841C437.632 150.424 438.23 149.781 438.629 148.911C439.033 148.034 439.236 146.905 439.236 145.521C439.236 144.15 439.033 143.029 438.629 142.159C438.23 141.289 437.635 140.648 436.843 140.238C436.052 139.827 435.076 139.621 433.916 139.621H431.415V151.457ZM463.114 145.539C463.114 147.563 462.73 149.285 461.963 150.705C461.201 152.125 460.162 153.209 458.845 153.958C457.534 154.702 456.06 155.073 454.423 155.073C452.773 155.073 451.293 154.699 449.982 153.949C448.671 153.2 447.635 152.116 446.873 150.696C446.112 149.276 445.732 147.557 445.732 145.539C445.732 143.515 446.112 141.793 446.873 140.374C447.635 138.954 448.671 137.872 449.982 137.129C451.293 136.38 452.773 136.005 454.423 136.005C456.06 136.005 457.534 136.38 458.845 137.129C460.162 137.872 461.201 138.954 461.963 140.374C462.73 141.793 463.114 143.515 463.114 145.539ZM459.135 145.539C459.135 144.228 458.939 143.123 458.546 142.222C458.159 141.322 457.613 140.639 456.906 140.174C456.199 139.709 455.371 139.476 454.423 139.476C453.474 139.476 452.646 139.709 451.939 140.174C451.233 140.639 450.683 141.322 450.29 142.222C449.903 143.123 449.71 144.228 449.71 145.539C449.71 146.85 449.903 147.956 450.29 148.856C450.683 149.756 451.233 150.439 451.939 150.904C452.646 151.37 453.474 151.602 454.423 151.602C455.371 151.602 456.199 151.37 456.906 150.904C457.613 150.439 458.159 149.756 458.546 148.856C458.939 147.956 459.135 146.85 459.135 145.539ZM466.021 154.819V136.259H473.343C474.745 136.259 475.941 136.51 476.932 137.011C477.929 137.507 478.687 138.211 479.207 139.123C479.732 140.029 479.995 141.096 479.995 142.322C479.995 143.555 479.729 144.615 479.198 145.503C478.666 146.385 477.896 147.062 476.887 147.533C475.884 148.004 474.669 148.24 473.243 148.24H468.341V145.086H472.609C473.358 145.086 473.981 144.983 474.476 144.778C474.971 144.573 475.34 144.264 475.582 143.854C475.829 143.443 475.953 142.932 475.953 142.322C475.953 141.706 475.829 141.186 475.582 140.763C475.34 140.34 474.968 140.02 474.467 139.803C473.972 139.579 473.346 139.467 472.591 139.467H469.945V154.819H466.021ZM476.044 146.373L480.657 154.819H476.325L471.812 146.373H476.044ZM496.686 135.389L490.705 157.611H487.379L493.36 135.389H496.686ZM504.526 154.819V136.259H511.957C513.322 136.259 514.461 136.461 515.374 136.866C516.286 137.271 516.972 137.833 517.431 138.552C517.89 139.265 518.12 140.087 518.12 141.017C518.12 141.742 517.975 142.379 517.685 142.929C517.394 143.473 516.996 143.92 516.488 144.27C515.987 144.615 515.413 144.86 514.766 145.005V145.186C515.473 145.216 516.135 145.415 516.751 145.784C517.373 146.152 517.878 146.669 518.265 147.334C518.651 147.992 518.845 148.778 518.845 149.69C518.845 150.675 518.6 151.554 518.11 152.327C517.627 153.094 516.911 153.702 515.963 154.149C515.014 154.596 513.845 154.819 512.455 154.819H504.526ZM508.45 151.611H511.649C512.742 151.611 513.54 151.403 514.041 150.986C514.543 150.563 514.794 150.001 514.794 149.3C514.794 148.787 514.67 148.334 514.422 147.941C514.174 147.548 513.821 147.24 513.362 147.016C512.908 146.793 512.368 146.681 511.739 146.681H508.45V151.611ZM508.45 144.026H511.359C511.896 144.026 512.374 143.932 512.791 143.745C513.214 143.551 513.546 143.28 513.788 142.929C514.035 142.579 514.159 142.159 514.159 141.669C514.159 140.999 513.92 140.458 513.443 140.047C512.972 139.636 512.301 139.431 511.431 139.431H508.45V144.026ZM524.597 154.819H520.392L526.799 136.259H531.856L538.254 154.819H534.049L529.4 140.5H529.255L524.597 154.819ZM524.334 147.524H534.267V150.587H524.334V147.524Z" fill="#008444"/>
<path d="M441.594 32.0894V104H460.428V76.6057H478.753C483.602 76.6057 488.71 75.9546 492.34 72.74C497.437 68.2252 498.095 62.3316 498.095 54.3475C498.095 47.1689 496.984 41.7223 493.002 37.2979C489.191 33.0646 483.127 32.0894 477.432 32.0894H441.594Z" fill="#008444"/>
<path d="M376.531 104H431.321V90.3031H391.941V73.1814H427.897V59.484H391.941V45.7867H431.321V32.0894H376.531V104Z" fill="#008444"/>
<path d="M510.081 104H564.87V90.3031H525.49V73.1814H561.446V59.484H525.49V45.7867H564.87V32.0894H510.081V104Z" fill="#008444"/>
<path d="M345.814 47.3192C347.41 49.0273 348.406 51.2749 349.137 54.3476H362.834C360.96 43.0835 356.977 37.1474 347.944 33.0676C338.995 29.0261 328.306 28.6936 319.566 33.1675C312.134 36.9715 307.808 43.0077 304.431 54.346C301.779 63.2475 301.802 72.8662 304.857 81.6376C308.229 91.3207 312.633 97.0175 320.05 100.92C328.524 105.379 338.937 105.722 347.709 101.881C356.46 98.0494 360.604 91.6251 362.834 78.3179H349.137C347.723 87.0158 345.187 90.3116 340.577 91.4607C336.132 92.5685 331.289 91.9257 327.206 89.8503C321.912 87.1589 319.176 82.4073 317.417 73.1193C316.781 69.7623 316.571 66.3188 316.807 62.9103C317.295 55.8431 318.696 51.1112 321.848 47.862C327.958 41.5631 339.822 40.9078 345.814 47.3192Z" fill="#008444"/>
<path d="M475.837 44.0741H457.003V62.9079L475.837 62.9086C479.262 62.9079 482.602 59.4986 482.686 52.6356C482.686 45.7869 479.262 44.0747 475.837 44.0741Z" fill="#F5F5F5"/>
<path d="M232.71 45.7866C181.427 -18.5429 63.6286 -11.3481 32.3865 44.0745C172.595 42.4251 104.625 193.335 203.571 199.788C211.486 200.304 219.634 199.016 226.481 195.009C265.824 171.989 276.641 100.893 232.71 45.7866Z" fill="#FEC52E"/>
<path d="M28.9623 206.737C86.4312 275.841 200.179 268.368 227.574 208.442C86.1799 211.731 157.987 62.946 59.2486 53.1263C50.6171 52.2679 41.622 53.5667 34.2255 58.0979C-4.51765 81.8333 -15.7389 152.986 28.9623 206.737Z" fill="#018445"/>
</svg>
