<svg width="441" height="301" viewBox="0 0 441 301" fill="none" xmlns="http://www.w3.org/2000/svg">
<rect width="441" height="300.5" fill="#EC1C24"/>
<path d="M306.5 88V104.5C306.5 105.052 306.948 105.5 307.5 105.5H342C342.552 105.5 343 105.948 343 106.5V122C343 122.552 342.552 123 342 123H287C286.448 123 286 122.552 286 122V36C286 35.4477 286.448 35 287 35H342C342.552 35 343 35.4477 343 36V52C343 52.5523 342.552 53 342 53H307.5C306.948 53 306.5 53.4477 306.5 54V68.5C306.5 69.0523 306.948 69.5 307.5 69.5H338.5C339.052 69.5 339.5 69.9477 339.5 70.5V86C339.5 86.5523 339.052 87 338.5 87H307.5C306.948 87 306.5 87.4477 306.5 88Z" fill="white"/>
<path d="M417.022 41.1297C417.276 48.9768 416.857 52.0674 415 54.4999C413.094 56.9965 389.869 48.1298 382 54.4999C371.5 62.9999 384 69.9999 394.5 70.4999C406.962 71.5098 417.152 78.4509 420.5 90.4999C422.46 105.08 419.882 111.446 409.658 119.87C409.555 119.955 409.432 120.02 409.305 120.058C387.629 126.504 374.537 126.403 358.419 120.163C358.154 120.06 357.942 119.848 357.847 119.58C356.254 115.077 356.52 111.786 358.267 105.789C358.4 105.331 358.85 105.033 359.325 105.079C378.512 106.903 387.086 107.222 395.246 105.068C395.413 105.024 395.568 104.933 395.69 104.811C401.614 98.8882 401.105 95.7666 395.693 90.6801C395.569 90.5631 395.409 90.4777 395.243 90.4373C376.266 85.8138 368.693 83.4606 364 79.9999C355 73.3635 351.5 52.9999 364 41.4999C370.938 36.0489 394.933 31.0918 416.422 40.2498C416.775 40.4004 417.009 40.746 417.022 41.1297Z" fill="white"/>
<path d="M199 122.068V37.4005C199 36.8886 199.402 36.4577 199.911 36.4053C248.408 31.4229 265.926 38.3339 269 77.9999C268.549 119.925 249.678 126.499 199.944 123.066C199.421 123.03 199 122.593 199 122.068Z" fill="white"/>
<path d="M129 74.5V121.5C129 122.052 128.552 122.5 128 122.5H110.006C109.451 122.5 109.003 122.049 109.006 121.494L109.494 36.9942C109.497 36.4442 109.944 36 110.494 36H125.474C125.803 36 126.111 36.1623 126.298 36.4338L158.176 82.8441C158.732 83.6537 160 83.2601 160 82.2779V37.5C160 36.9477 160.448 36.5 161 36.5H178.5C179.052 36.5 179.5 36.9477 179.5 37.5V121.5C179.5 122.052 179.052 122.5 178.5 122.5H164.013C163.691 122.5 163.389 122.345 163.201 122.084L129 74.5Z" fill="white"/>
<path d="M45.7651 104.669L39.7349 121.831C39.5942 122.232 39.2159 122.5 38.7914 122.5H29.5H20.8672C20.1905 122.5 19.7092 121.842 19.9142 121.197L46.7784 36.697C46.9104 36.2819 47.2958 36 47.7314 36H70.2766C70.7083 36 71.0913 36.277 71.2264 36.6871L99.0674 121.187C99.2806 121.834 98.7987 122.5 98.1176 122.5H79.227C78.7935 122.5 78.4094 122.221 78.2757 121.809L72.7243 104.691C72.5906 104.279 72.2065 104 71.773 104H46.7086C46.2841 104 45.9058 104.268 45.7651 104.669Z" fill="white"/>
<path d="M67 87L59 57.5L50.5 87H67Z" fill="#EC1C24"/>
<path d="M219.5 104.545V54.4394C219.5 53.9114 219.921 53.4732 220.448 53.4447C240.447 52.366 246.81 57.7208 247 80C246.022 102.522 238.636 106.237 220.463 105.54C219.929 105.52 219.5 105.079 219.5 104.545Z" fill="#EC1C24"/>
<path d="M20.7553 157.376C19.9505 155.187 19.9318 153.596 20.7269 151.997C20.8833 151.682 21.2145 151.5 21.566 151.5H419.499C420.051 151.5 420.499 151.948 420.499 152.5V157C420.499 157.552 420.051 158 419.499 158H21.6685C21.2635 158 20.8951 157.756 20.7553 157.376Z" fill="white"/>
<path d="M20.7553 228.376C19.9505 226.187 19.9318 224.596 20.7269 222.997C20.8833 222.682 21.2145 222.5 21.566 222.5H419.499C420.051 222.5 420.499 222.948 420.499 223.5V228C420.499 228.552 420.051 229 419.499 229H21.6685C21.2635 229 20.8951 228.756 20.7553 228.376Z" fill="white"/>
<path d="M37.138 197.437C37.138 196.784 37.0356 196.208 36.8309 195.709C36.6389 195.197 36.2934 194.737 35.7944 194.327C35.3082 193.918 34.63 193.528 33.7599 193.157C32.9026 192.785 31.8149 192.408 30.497 192.024C29.115 191.615 27.8674 191.16 26.7542 190.661C25.641 190.15 24.6877 189.567 23.8944 188.915C23.101 188.262 22.4932 187.514 22.071 186.669C21.6487 185.825 21.4376 184.859 21.4376 183.771C21.4376 182.683 21.6615 181.679 22.1094 180.758C22.5572 179.836 23.197 179.036 24.0287 178.358C24.8732 177.667 25.8777 177.13 27.0421 176.746C28.2065 176.362 29.5053 176.17 30.9384 176.17C33.0369 176.17 34.8155 176.573 36.2742 177.379C37.7458 178.173 38.8654 179.216 39.6331 180.508C40.4009 181.788 40.7847 183.157 40.7847 184.615H37.0996C37.0996 183.566 36.8756 182.638 36.4278 181.832C35.9799 181.013 35.3018 180.374 34.3933 179.913C33.4848 179.44 32.3332 179.203 30.9384 179.203C29.6205 179.203 28.5328 179.401 27.6755 179.798C26.8182 180.194 26.1784 180.732 25.7562 181.41C25.3467 182.088 25.142 182.862 25.142 183.733C25.142 184.321 25.2635 184.859 25.5066 185.345C25.7625 185.818 26.1528 186.26 26.6774 186.669C27.2149 187.079 27.893 187.456 28.712 187.802C29.5437 188.147 30.5354 188.48 31.687 188.8C33.2736 189.247 34.6428 189.747 35.7944 190.297C36.946 190.847 37.8929 191.468 38.6351 192.159C39.39 192.837 39.9466 193.611 40.3049 194.481C40.676 195.338 40.8615 196.311 40.8615 197.398C40.8615 198.537 40.6312 199.567 40.1706 200.489C39.7099 201.41 39.0509 202.197 38.1936 202.849C37.3363 203.502 36.3062 204.007 35.1034 204.366C33.9134 204.711 32.5827 204.884 31.1112 204.884C29.8188 204.884 28.5456 204.705 27.2916 204.346C26.0505 203.988 24.918 203.451 23.8944 202.734C22.8835 202.018 22.071 201.135 21.4568 200.085C20.8554 199.023 20.5547 197.795 20.5547 196.4H24.2399C24.2399 197.36 24.4254 198.185 24.7965 198.876C25.1675 199.554 25.673 200.117 26.3128 200.565C26.9653 201.013 27.7011 201.346 28.52 201.563C29.3518 201.768 30.2155 201.87 31.1112 201.87C32.4035 201.87 33.4976 201.691 34.3933 201.333C35.289 200.975 35.9672 200.463 36.4278 199.798C36.9012 199.132 37.138 198.345 37.138 197.437ZM49.5562 176.554V204.5H45.8519V176.554H49.5562ZM77.79 176.554V204.5H74.0665L59.9976 182.946V204.5H56.2932V176.554H59.9976L74.124 198.166V176.554H77.79ZM91.9165 204.5H86.0817L86.1201 201.487H91.9165C93.9127 201.487 95.5761 201.071 96.9069 200.239C98.2376 199.394 99.2357 198.217 99.9011 196.707C100.579 195.185 100.918 193.406 100.918 191.372V189.663C100.918 188.064 100.726 186.644 100.343 185.402C99.9586 184.148 99.3956 183.093 98.6535 182.235C97.9113 181.365 97.0028 180.706 95.928 180.258C94.8659 179.811 93.644 179.587 92.262 179.587H85.9665V176.554H92.262C94.0918 176.554 95.7616 176.861 97.2715 177.475C98.7814 178.077 100.08 178.953 101.168 180.105C102.268 181.244 103.113 182.626 103.701 184.251C104.29 185.863 104.584 187.68 104.584 189.702V191.372C104.584 193.393 104.29 195.217 103.701 196.842C103.113 198.454 102.262 199.83 101.149 200.968C100.048 202.107 98.7175 202.984 97.1564 203.598C95.6081 204.199 93.8615 204.5 91.9165 204.5ZM88.0586 176.554V204.5H84.3542V176.554H88.0586ZM114.124 176.554V204.5H110.419V176.554H114.124ZM137.732 195.613H141.417C141.225 197.379 140.719 198.959 139.901 200.354C139.082 201.749 137.924 202.856 136.427 203.675C134.929 204.481 133.061 204.884 130.822 204.884C129.184 204.884 127.693 204.577 126.35 203.963C125.019 203.348 123.874 202.478 122.914 201.352C121.955 200.213 121.212 198.851 120.688 197.264C120.176 195.665 119.92 193.886 119.92 191.928V189.145C119.92 187.187 120.176 185.415 120.688 183.828C121.212 182.229 121.961 180.86 122.933 179.721C123.919 178.582 125.102 177.706 126.484 177.092C127.866 176.477 129.421 176.17 131.148 176.17C133.26 176.17 135.045 176.567 136.503 177.36C137.962 178.154 139.094 179.254 139.901 180.662C140.719 182.056 141.225 183.675 141.417 185.518H137.732C137.553 184.212 137.22 183.093 136.734 182.159C136.247 181.212 135.556 180.482 134.661 179.971C133.765 179.459 132.594 179.203 131.148 179.203C129.907 179.203 128.813 179.44 127.866 179.913C126.932 180.386 126.145 181.058 125.505 181.928C124.878 182.798 124.405 183.841 124.085 185.057C123.765 186.272 123.605 187.622 123.605 189.107V191.928C123.605 193.297 123.746 194.583 124.027 195.786C124.322 196.989 124.763 198.045 125.352 198.953C125.94 199.862 126.689 200.578 127.597 201.103C128.506 201.615 129.581 201.87 130.822 201.87C132.396 201.87 133.65 201.621 134.584 201.122C135.518 200.623 136.222 199.906 136.695 198.972C137.181 198.038 137.527 196.919 137.732 195.613ZM156.81 179.03L147.559 204.5H143.778L154.43 176.554H156.868L156.81 179.03ZM164.564 204.5L155.294 179.03L155.236 176.554H157.674L168.365 204.5H164.564ZM164.085 194.155V197.187H148.384V194.155H164.085ZM179.938 176.554V204.5H176.292V176.554H179.938ZM188.921 176.554V179.587H167.328V176.554H188.921ZM214.045 189.644V191.41C214.045 193.508 213.783 195.389 213.259 197.053C212.734 198.716 211.979 200.13 210.994 201.295C210.008 202.459 208.825 203.348 207.443 203.963C206.074 204.577 204.538 204.884 202.836 204.884C201.186 204.884 199.669 204.577 198.288 203.963C196.918 203.348 195.728 202.459 194.717 201.295C193.719 200.13 192.945 198.716 192.395 197.053C191.845 195.389 191.57 193.508 191.57 191.41V189.644C191.57 187.546 191.838 185.671 192.376 184.02C192.926 182.357 193.7 180.943 194.698 179.779C195.696 178.601 196.88 177.706 198.249 177.092C199.631 176.477 201.147 176.17 202.798 176.17C204.5 176.17 206.035 176.477 207.404 177.092C208.786 177.706 209.97 178.601 210.955 179.779C211.953 180.943 212.715 182.357 213.239 184.02C213.777 185.671 214.045 187.546 214.045 189.644ZM210.379 191.41V189.606C210.379 187.942 210.207 186.471 209.861 185.191C209.529 183.912 209.036 182.837 208.383 181.967C207.731 181.097 206.931 180.438 205.984 179.99C205.05 179.542 203.988 179.318 202.798 179.318C201.646 179.318 200.604 179.542 199.669 179.99C198.748 180.438 197.955 181.097 197.289 181.967C196.637 182.837 196.131 183.912 195.773 185.191C195.415 186.471 195.236 187.942 195.236 189.606V191.41C195.236 193.086 195.415 194.571 195.773 195.863C196.131 197.142 196.643 198.224 197.309 199.107C197.987 199.977 198.787 200.636 199.708 201.084C200.642 201.531 201.685 201.755 202.836 201.755C204.039 201.755 205.108 201.531 206.042 201.084C206.976 200.636 207.763 199.977 208.403 199.107C209.055 198.224 209.548 197.142 209.88 195.863C210.213 194.571 210.379 193.086 210.379 191.41ZM250.84 176.554V204.5H247.116L233.047 182.946V204.5H229.343V176.554H233.047L247.174 198.166V176.554H250.84ZM268.095 179.03L258.843 204.5H255.062L265.715 176.554H268.152L268.095 179.03ZM275.849 204.5L266.578 179.03L266.521 176.554H268.958L279.649 204.5H275.849ZM275.369 194.155V197.187H259.669V194.155H275.369ZM300.033 195.613H303.718C303.526 197.379 303.021 198.959 302.202 200.354C301.383 201.749 300.225 202.856 298.728 203.675C297.231 204.481 295.362 204.884 293.123 204.884C291.485 204.884 289.995 204.577 288.651 203.963C287.32 203.348 286.175 202.478 285.215 201.352C284.256 200.213 283.514 198.851 282.989 197.264C282.477 195.665 282.221 193.886 282.221 191.928V189.145C282.221 187.187 282.477 185.415 282.989 183.828C283.514 182.229 284.262 180.86 285.235 179.721C286.22 178.582 287.403 177.706 288.785 177.092C290.167 176.477 291.722 176.17 293.449 176.17C295.561 176.17 297.346 176.567 298.804 177.36C300.263 178.154 301.396 179.254 302.202 180.662C303.021 182.056 303.526 183.675 303.718 185.518H300.033C299.854 184.212 299.521 183.093 299.035 182.159C298.549 181.212 297.858 180.482 296.962 179.971C296.066 179.459 294.895 179.203 293.449 179.203C292.208 179.203 291.114 179.44 290.167 179.913C289.233 180.386 288.446 181.058 287.807 181.928C287.18 182.798 286.706 183.841 286.386 185.057C286.066 186.272 285.906 187.622 285.906 189.107V191.928C285.906 193.297 286.047 194.583 286.329 195.786C286.623 196.989 287.064 198.045 287.653 198.953C288.242 199.862 288.99 200.578 289.899 201.103C290.807 201.615 291.882 201.87 293.123 201.87C294.697 201.87 295.951 201.621 296.885 201.122C297.819 200.623 298.523 199.906 298.996 198.972C299.483 198.038 299.828 196.919 300.033 195.613ZM312.739 176.554V204.5H309.035V176.554H312.739ZM340.992 189.644V191.41C340.992 193.508 340.73 195.389 340.205 197.053C339.68 198.716 338.925 200.13 337.94 201.295C336.955 202.459 335.771 203.348 334.389 203.963C333.02 204.577 331.485 204.884 329.783 204.884C328.132 204.884 326.616 204.577 325.234 203.963C323.865 203.348 322.675 202.459 321.664 201.295C320.666 200.13 319.892 198.716 319.342 197.053C318.791 195.389 318.516 193.508 318.516 191.41V189.644C318.516 187.546 318.785 185.671 319.322 184.02C319.873 182.357 320.647 180.943 321.645 179.779C322.643 178.601 323.827 177.706 325.196 177.092C326.578 176.477 328.094 176.17 329.745 176.17C331.446 176.17 332.982 176.477 334.351 177.092C335.733 177.706 336.917 178.601 337.902 179.779C338.9 180.943 339.661 182.357 340.186 184.02C340.723 185.671 340.992 187.546 340.992 189.644ZM337.326 191.41V189.606C337.326 187.942 337.153 186.471 336.808 185.191C336.475 183.912 335.982 182.837 335.33 181.967C334.677 181.097 333.878 180.438 332.931 179.99C331.997 179.542 330.935 179.318 329.745 179.318C328.593 179.318 327.55 179.542 326.616 179.99C325.695 180.438 324.901 181.097 324.236 181.967C323.583 182.837 323.078 183.912 322.72 185.191C322.361 186.471 322.182 187.942 322.182 189.606V191.41C322.182 193.086 322.361 194.571 322.72 195.863C323.078 197.142 323.59 198.224 324.255 199.107C324.933 199.977 325.733 200.636 326.654 201.084C327.588 201.531 328.631 201.755 329.783 201.755C330.986 201.755 332.054 201.531 332.988 201.084C333.922 200.636 334.709 199.977 335.349 199.107C336.002 198.224 336.494 197.142 336.827 195.863C337.16 194.571 337.326 193.086 337.326 191.41ZM368.036 176.554V204.5H364.312L350.243 182.946V204.5H346.539V176.554H350.243L364.37 198.166V176.554H368.036ZM385.291 179.03L376.04 204.5H372.258L382.911 176.554H385.348L385.291 179.03ZM393.045 204.5L383.775 179.03L383.717 176.554H386.155L396.845 204.5H393.045ZM392.565 194.155V197.187H376.865V194.155H392.565ZM417.536 201.487V204.5H403.563V201.487H417.536ZM404.293 176.554V204.5H400.588V176.554H404.293Z" fill="white"/>
</svg>
