<svg width="983" height="354" viewBox="0 0 983 354" fill="none" xmlns="http://www.w3.org/2000/svg">
<path d="M700 198V40.5H806V70H735.5V101H798V130H735.5V168H811.5V198H700Z" fill="#006C5D"/>
<path d="M595 41.5L535 197C548.472 198.389 556.026 198.358 569.5 197L577.5 175C602.327 167.772 617.116 167.816 645 175L652.5 197H686.5L627 41.5H595Z" fill="#006C5D"/>
<path d="M439.5 39.5V198.5H475.5V133.5H537V103H475.5V70H545V39.5H439.5Z" fill="#006C5D"/>
<path d="M835 195.534V43.5337C883.235 35.0648 905.066 36.0009 934 48.5337C956.5 64.5337 957.5 99.5337 934 112.534C952.667 121.148 959.228 129.558 959.5 155.034C951.279 198.717 920.705 205.298 835 195.534Z" fill="#006C5D"/>
<path d="M870 169.5L869.5 130C912.131 128.341 925.167 132.566 923.5 151C921.089 167.486 912.349 173.028 870 169.5Z" fill="white"/>
<path d="M869.443 101.13L869 67.2832C906.797 65.8615 918.355 69.4818 916.877 85.2774C914.739 99.4041 906.991 104.153 869.443 101.13Z" fill="white"/>
<path d="M632.5 141.5L610.5 84.5L589.5 141.5C605.428 138.726 614.79 138.555 632.5 141.5Z" fill="#F7FAF8"/>
<path d="M437.974 262V229.183H457.651V232.708H441.948V243.797H456.177V247.322H441.948V262H437.974ZM472.457 262.513C470.086 262.513 468.04 261.989 466.32 260.942C464.611 259.885 463.292 258.411 462.362 256.52C461.444 254.618 460.984 252.407 460.984 249.886C460.984 247.365 461.444 245.143 462.362 243.22C463.292 241.286 464.584 239.78 466.24 238.701C467.907 237.612 469.851 237.067 472.073 237.067C473.355 237.067 474.621 237.28 475.87 237.708C477.12 238.135 478.258 238.829 479.284 239.791C480.309 240.742 481.126 242.002 481.735 243.573C482.344 245.143 482.649 247.076 482.649 249.373V250.976H463.676V247.707H478.803C478.803 246.318 478.525 245.079 477.97 243.989C477.425 242.9 476.645 242.04 475.63 241.409C474.626 240.779 473.44 240.464 472.073 240.464C470.567 240.464 469.263 240.838 468.163 241.586C467.073 242.323 466.235 243.284 465.647 244.47C465.06 245.656 464.766 246.927 464.766 248.284V250.463C464.766 252.322 465.086 253.897 465.727 255.19C466.379 256.472 467.282 257.449 468.435 258.122C469.589 258.785 470.93 259.116 472.457 259.116C473.451 259.116 474.348 258.977 475.149 258.699C475.961 258.411 476.661 257.983 477.248 257.417C477.836 256.84 478.29 256.125 478.611 255.27L482.264 256.295C481.879 257.535 481.233 258.624 480.325 259.564C479.417 260.494 478.295 261.22 476.96 261.744C475.625 262.256 474.124 262.513 472.457 262.513ZM497.695 262.513C495.644 262.513 493.833 261.995 492.263 260.958C490.693 259.912 489.464 258.437 488.577 256.536C487.691 254.624 487.247 252.364 487.247 249.758C487.247 247.173 487.691 244.929 488.577 243.028C489.464 241.126 490.698 239.657 492.279 238.621C493.86 237.585 495.687 237.067 497.759 237.067C499.361 237.067 500.627 237.334 501.557 237.868C502.497 238.391 503.213 238.99 503.704 239.663C504.206 240.325 504.596 240.87 504.874 241.297H505.194V229.183H508.976V262H505.322V258.218H504.874C504.596 258.667 504.201 259.233 503.688 259.917C503.175 260.59 502.443 261.193 501.493 261.728C500.542 262.251 499.276 262.513 497.695 262.513ZM498.208 259.116C499.725 259.116 501.007 258.72 502.053 257.93C503.1 257.129 503.896 256.023 504.441 254.613C504.986 253.192 505.258 251.552 505.258 249.694C505.258 247.856 504.991 246.249 504.457 244.87C503.923 243.482 503.132 242.403 502.086 241.634C501.039 240.854 499.746 240.464 498.208 240.464C496.605 240.464 495.27 240.875 494.202 241.698C493.144 242.51 492.348 243.615 491.814 245.015C491.291 246.403 491.029 247.963 491.029 249.694C491.029 251.446 491.296 253.037 491.83 254.469C492.375 255.89 493.176 257.022 494.234 257.866C495.302 258.699 496.627 259.116 498.208 259.116ZM526.746 262.513C524.375 262.513 522.329 261.989 520.609 260.942C518.9 259.885 517.581 258.411 516.651 256.52C515.733 254.618 515.273 252.407 515.273 249.886C515.273 247.365 515.733 245.143 516.651 243.22C517.581 241.286 518.873 239.78 520.529 238.701C522.196 237.612 524.14 237.067 526.362 237.067C527.644 237.067 528.91 237.28 530.159 237.708C531.409 238.135 532.547 238.829 533.572 239.791C534.598 240.742 535.415 242.002 536.024 243.573C536.633 245.143 536.938 247.076 536.938 249.373V250.976H517.965V247.707H533.092C533.092 246.318 532.814 245.079 532.259 243.989C531.714 242.9 530.934 242.04 529.919 241.409C528.915 240.779 527.729 240.464 526.362 240.464C524.855 240.464 523.552 240.838 522.452 241.586C521.362 242.323 520.524 243.284 519.936 244.47C519.349 245.656 519.055 246.927 519.055 248.284V250.463C519.055 252.322 519.375 253.897 520.016 255.19C520.668 256.472 521.571 257.449 522.724 258.122C523.878 258.785 525.219 259.116 526.746 259.116C527.74 259.116 528.637 258.977 529.438 258.699C530.25 258.411 530.95 257.983 531.537 257.417C532.125 256.84 532.579 256.125 532.899 255.27L536.553 256.295C536.168 257.535 535.522 258.624 534.614 259.564C533.706 260.494 532.584 261.22 531.249 261.744C529.914 262.256 528.413 262.513 526.746 262.513ZM542.69 262V237.387H546.344V241.105H546.6C547.049 239.887 547.86 238.899 549.036 238.14C550.211 237.382 551.535 237.003 553.009 237.003C553.287 237.003 553.634 237.008 554.051 237.019C554.468 237.029 554.783 237.045 554.996 237.067V240.913C554.868 240.881 554.574 240.832 554.115 240.768C553.666 240.694 553.191 240.656 552.689 240.656C551.493 240.656 550.424 240.907 549.484 241.409C548.555 241.901 547.818 242.584 547.273 243.46C546.739 244.326 546.472 245.314 546.472 246.425V262H542.69ZM566.722 262.577C565.162 262.577 563.747 262.283 562.476 261.696C561.204 261.097 560.195 260.237 559.447 259.116C558.699 257.983 558.325 256.616 558.325 255.014C558.325 253.603 558.603 252.46 559.159 251.584C559.714 250.698 560.457 250.003 561.386 249.501C562.315 248.999 563.341 248.625 564.463 248.38C565.595 248.123 566.733 247.92 567.876 247.771C569.371 247.578 570.584 247.434 571.513 247.338C572.453 247.231 573.137 247.055 573.564 246.809C574.002 246.564 574.221 246.136 574.221 245.527V245.399C574.221 243.818 573.788 242.59 572.923 241.714C572.069 240.838 570.771 240.4 569.029 240.4C567.224 240.4 565.809 240.795 564.783 241.586C563.758 242.376 563.036 243.22 562.62 244.117L559.03 242.835C559.671 241.34 560.526 240.175 561.594 239.342C562.673 238.498 563.848 237.911 565.12 237.58C566.401 237.238 567.662 237.067 568.901 237.067C569.692 237.067 570.6 237.163 571.625 237.355C572.661 237.537 573.66 237.916 574.622 238.493C575.594 239.07 576.4 239.94 577.041 241.105C577.682 242.269 578.003 243.829 578.003 245.784V262H574.221V258.667H574.029C573.772 259.201 573.345 259.773 572.747 260.382C572.149 260.99 571.353 261.509 570.359 261.936C569.366 262.363 568.153 262.577 566.722 262.577ZM567.299 259.18C568.794 259.18 570.055 258.886 571.08 258.298C572.117 257.711 572.896 256.952 573.42 256.023C573.954 255.094 574.221 254.116 574.221 253.091V249.63C574.061 249.822 573.708 249.998 573.164 250.158C572.629 250.308 572.01 250.441 571.305 250.559C570.61 250.666 569.932 250.762 569.27 250.847C568.618 250.922 568.089 250.986 567.683 251.04C566.701 251.168 565.782 251.376 564.927 251.665C564.083 251.942 563.4 252.364 562.876 252.93C562.363 253.486 562.107 254.244 562.107 255.206C562.107 256.52 562.593 257.513 563.565 258.186C564.548 258.849 565.793 259.18 567.299 259.18ZM594.904 262.513C592.597 262.513 590.61 261.968 588.943 260.878C587.277 259.789 585.995 258.288 585.097 256.376C584.2 254.463 583.751 252.279 583.751 249.822C583.751 247.322 584.211 245.116 585.129 243.204C586.059 241.281 587.351 239.78 589.007 238.701C590.674 237.612 592.618 237.067 594.84 237.067C596.57 237.067 598.13 237.387 599.519 238.028C600.908 238.669 602.045 239.567 602.932 240.72C603.819 241.874 604.369 243.22 604.582 244.758H600.801C600.512 243.637 599.871 242.643 598.878 241.778C597.895 240.902 596.57 240.464 594.904 240.464C593.43 240.464 592.137 240.848 591.026 241.618C589.926 242.376 589.066 243.45 588.446 244.838C587.837 246.216 587.533 247.835 587.533 249.694C587.533 251.595 587.832 253.251 588.43 254.661C589.039 256.071 589.894 257.166 590.994 257.946C592.105 258.726 593.408 259.116 594.904 259.116C595.887 259.116 596.779 258.945 597.58 258.603C598.381 258.261 599.059 257.77 599.615 257.129C600.17 256.488 600.566 255.719 600.801 254.821H604.582C604.369 256.274 603.84 257.583 602.996 258.747C602.163 259.901 601.057 260.82 599.679 261.503C598.312 262.176 596.72 262.513 594.904 262.513ZM593.109 261.872H596.25L595.994 263.154C596.827 263.282 597.591 263.629 598.285 264.195C598.979 264.772 599.327 265.685 599.327 266.935C599.327 268.313 598.755 269.435 597.612 270.3C596.48 271.176 594.808 271.614 592.597 271.614L592.468 269.115C593.462 269.115 594.284 268.954 594.936 268.634C595.598 268.324 595.929 267.801 595.929 267.064C595.929 266.326 595.657 265.824 595.112 265.557C594.567 265.29 593.686 265.109 592.468 265.012L593.109 261.872ZM617.353 262.577C615.794 262.577 614.378 262.283 613.107 261.696C611.836 261.097 610.826 260.237 610.079 259.116C609.331 257.983 608.957 256.616 608.957 255.014C608.957 253.603 609.235 252.46 609.79 251.584C610.346 250.698 611.088 250.003 612.017 249.501C612.947 248.999 613.972 248.625 615.094 248.38C616.226 248.123 617.364 247.92 618.507 247.771C620.003 247.578 621.215 247.434 622.145 247.338C623.085 247.231 623.768 247.055 624.196 246.809C624.634 246.564 624.853 246.136 624.853 245.527V245.399C624.853 243.818 624.42 242.59 623.555 241.714C622.7 240.838 621.402 240.4 619.661 240.4C617.856 240.4 616.44 240.795 615.415 241.586C614.389 242.376 613.668 243.22 613.251 244.117L609.662 242.835C610.303 241.34 611.158 240.175 612.226 239.342C613.305 238.498 614.48 237.911 615.751 237.58C617.033 237.238 618.294 237.067 619.533 237.067C620.323 237.067 621.231 237.163 622.257 237.355C623.293 237.537 624.292 237.916 625.253 238.493C626.225 239.07 627.032 239.94 627.673 241.105C628.314 242.269 628.634 243.829 628.634 245.784V262H624.853V258.667H624.66C624.404 259.201 623.977 259.773 623.378 260.382C622.78 260.99 621.984 261.509 620.991 261.936C619.997 262.363 618.785 262.577 617.353 262.577ZM617.93 259.18C619.426 259.18 620.686 258.886 621.712 258.298C622.748 257.711 623.528 256.952 624.051 256.023C624.586 255.094 624.853 254.116 624.853 253.091V249.63C624.692 249.822 624.34 249.998 623.795 250.158C623.261 250.308 622.641 250.441 621.936 250.559C621.242 250.666 620.564 250.762 619.901 250.847C619.25 250.922 618.721 250.986 618.315 251.04C617.332 251.168 616.413 251.376 615.559 251.665C614.715 251.942 614.031 252.364 613.508 252.93C612.995 253.486 612.739 254.244 612.739 255.206C612.739 256.52 613.225 257.513 614.197 258.186C615.18 258.849 616.424 259.18 617.93 259.18ZM614.854 234.439L611.905 234.311C611.905 232.676 612.37 231.341 613.299 230.305C614.239 229.258 615.399 228.734 616.777 228.734C617.385 228.734 617.925 228.841 618.395 229.055C618.865 229.258 619.314 229.493 619.741 229.76C620.168 230.027 620.606 230.267 621.055 230.481C621.514 230.684 622.032 230.785 622.609 230.785C623.218 230.785 623.731 230.55 624.148 230.08C624.575 229.6 624.789 229.023 624.789 228.35L627.673 228.606C627.673 230.273 627.203 231.597 626.263 232.58C625.333 233.563 624.18 234.054 622.802 234.054C622.064 234.054 621.456 233.953 620.975 233.75C620.494 233.536 620.067 233.296 619.693 233.029C619.319 232.762 618.924 232.527 618.507 232.324C618.091 232.11 617.578 232.003 616.969 232.003C616.36 232.003 615.853 232.244 615.447 232.724C615.051 233.194 614.854 233.766 614.854 234.439ZM645.535 262.513C643.313 262.513 641.364 261.984 639.687 260.926C638.02 259.869 636.717 258.389 635.777 256.488C634.848 254.586 634.383 252.364 634.383 249.822C634.383 247.258 634.848 245.02 635.777 243.108C636.717 241.196 638.02 239.711 639.687 238.653C641.364 237.596 643.313 237.067 645.535 237.067C647.757 237.067 649.702 237.596 651.368 238.653C653.045 239.711 654.349 241.196 655.278 243.108C656.218 245.02 656.688 247.258 656.688 249.822C656.688 252.364 656.218 254.586 655.278 256.488C654.349 258.389 653.045 259.869 651.368 260.926C649.702 261.984 647.757 262.513 645.535 262.513ZM645.535 259.116C647.223 259.116 648.612 258.683 649.702 257.818C650.791 256.952 651.598 255.815 652.121 254.405C652.645 252.995 652.906 251.467 652.906 249.822C652.906 248.177 652.645 246.644 652.121 245.223C651.598 243.802 650.791 242.654 649.702 241.778C648.612 240.902 647.223 240.464 645.535 240.464C643.848 240.464 642.459 240.902 641.369 241.778C640.28 242.654 639.473 243.802 638.95 245.223C638.426 246.644 638.164 248.177 638.164 249.822C638.164 251.467 638.426 252.995 638.95 254.405C639.473 255.815 640.28 256.952 641.369 257.818C642.459 258.683 643.848 259.116 645.535 259.116ZM684.445 262.513C682.394 262.513 680.584 261.995 679.013 260.958C677.443 259.912 676.215 258.437 675.328 256.536C674.441 254.624 673.998 252.364 673.998 249.758C673.998 247.173 674.441 244.929 675.328 243.028C676.215 241.126 677.448 239.657 679.029 238.621C680.61 237.585 682.437 237.067 684.51 237.067C686.112 237.067 687.378 237.334 688.307 237.868C689.247 238.391 689.963 238.99 690.454 239.663C690.957 240.325 691.346 240.87 691.624 241.297H691.945V229.183H695.726V262H692.073V258.218H691.624C691.346 258.667 690.951 259.233 690.438 259.917C689.926 260.59 689.194 261.193 688.243 261.728C687.292 262.251 686.027 262.513 684.445 262.513ZM684.958 259.116C686.475 259.116 687.757 258.72 688.804 257.93C689.851 257.129 690.647 256.023 691.192 254.613C691.736 253.192 692.009 251.552 692.009 249.694C692.009 247.856 691.742 246.249 691.208 244.87C690.673 243.482 689.883 242.403 688.836 241.634C687.789 240.854 686.497 240.464 684.958 240.464C683.356 240.464 682.021 240.875 680.952 241.698C679.895 242.51 679.099 243.615 678.565 245.015C678.041 246.403 677.78 247.963 677.78 249.694C677.78 251.446 678.047 253.037 678.581 254.469C679.126 255.89 679.927 257.022 680.984 257.866C682.053 258.699 683.377 259.116 684.958 259.116ZM710.42 262.577C708.861 262.577 707.445 262.283 706.174 261.696C704.903 261.097 703.893 260.237 703.145 259.116C702.398 257.983 702.024 256.616 702.024 255.014C702.024 253.603 702.301 252.46 702.857 251.584C703.412 250.698 704.155 250.003 705.084 249.501C706.014 248.999 707.039 248.625 708.161 248.38C709.293 248.123 710.431 247.92 711.574 247.771C713.069 247.578 714.282 247.434 715.211 247.338C716.151 247.231 716.835 247.055 717.262 246.809C717.7 246.564 717.919 246.136 717.919 245.527V245.399C717.919 243.818 717.487 242.59 716.621 241.714C715.767 240.838 714.469 240.4 712.728 240.4C710.922 240.4 709.507 240.795 708.481 241.586C707.456 242.376 706.735 243.22 706.318 244.117L702.729 242.835C703.37 241.34 704.224 240.175 705.293 239.342C706.372 238.498 707.547 237.911 708.818 237.58C710.1 237.238 711.36 237.067 712.599 237.067C713.39 237.067 714.298 237.163 715.324 237.355C716.36 237.537 717.359 237.916 718.32 238.493C719.292 239.07 720.099 239.94 720.74 241.105C721.381 242.269 721.701 243.829 721.701 245.784V262H717.919V258.667H717.727C717.471 259.201 717.043 259.773 716.445 260.382C715.847 260.99 715.051 261.509 714.058 261.936C713.064 262.363 711.852 262.577 710.42 262.577ZM710.997 259.18C712.493 259.18 713.753 258.886 714.779 258.298C715.815 257.711 716.595 256.952 717.118 256.023C717.652 255.094 717.919 254.116 717.919 253.091V249.63C717.759 249.822 717.407 249.998 716.862 250.158C716.328 250.308 715.708 250.441 715.003 250.559C714.309 250.666 713.63 250.762 712.968 250.847C712.316 250.922 711.788 250.986 711.382 251.04C710.399 251.168 709.48 251.376 708.626 251.665C707.782 251.942 707.098 252.364 706.574 252.93C706.062 253.486 705.805 254.244 705.805 255.206C705.805 256.52 706.291 257.513 707.264 258.186C708.246 258.849 709.491 259.18 710.997 259.18ZM743.153 262H738.987L751.037 229.183H755.139L767.189 262H763.023L753.216 234.375H752.96L743.153 262ZM744.691 249.181H761.484V252.706H744.691V249.181ZM781.723 271.743C779.896 271.743 778.325 271.508 777.012 271.037C775.698 270.578 774.603 269.969 773.727 269.211C772.861 268.463 772.172 267.662 771.66 266.807L774.672 264.692C775.014 265.141 775.447 265.653 775.97 266.23C776.493 266.818 777.209 267.325 778.117 267.753C779.036 268.191 780.238 268.41 781.723 268.41C783.71 268.41 785.349 267.929 786.642 266.967C787.934 266.006 788.581 264.5 788.581 262.449V257.449H788.26C787.983 257.898 787.587 258.453 787.075 259.116C786.572 259.767 785.846 260.35 784.895 260.862C783.955 261.364 782.684 261.615 781.082 261.615C779.095 261.615 777.311 261.145 775.73 260.205C774.159 259.265 772.915 257.898 771.996 256.103C771.088 254.309 770.634 252.129 770.634 249.565C770.634 247.044 771.077 244.849 771.964 242.98C772.851 241.099 774.084 239.647 775.666 238.621C777.247 237.585 779.073 237.067 781.146 237.067C782.748 237.067 784.019 237.334 784.959 237.868C785.91 238.391 786.637 238.99 787.139 239.663C787.651 240.325 788.047 240.87 788.324 241.297H788.709V237.387H792.362V262.705C792.362 264.82 791.882 266.54 790.92 267.865C789.97 269.2 788.688 270.178 787.075 270.797C785.472 271.427 783.688 271.743 781.723 271.743ZM781.594 258.218C783.111 258.218 784.393 257.871 785.44 257.177C786.487 256.482 787.283 255.484 787.828 254.18C788.372 252.877 788.645 251.317 788.645 249.501C788.645 247.728 788.378 246.163 787.844 244.806C787.31 243.45 786.519 242.387 785.472 241.618C784.425 240.848 783.133 240.464 781.594 240.464C779.992 240.464 778.657 240.87 777.588 241.682C776.531 242.494 775.735 243.583 775.201 244.951C774.677 246.318 774.416 247.835 774.416 249.501C774.416 251.211 774.683 252.722 775.217 254.036C775.762 255.339 776.563 256.365 777.62 257.113C778.689 257.85 780.013 258.218 781.594 258.218ZM799.285 262V237.387H802.938V241.105H803.195C803.643 239.887 804.455 238.899 805.63 238.14C806.805 237.382 808.13 237.003 809.604 237.003C809.882 237.003 810.229 237.008 810.646 237.019C811.062 237.029 811.377 237.045 811.591 237.067V240.913C811.463 240.881 811.169 240.832 810.71 240.768C810.261 240.694 809.786 240.656 809.284 240.656C808.087 240.656 807.019 240.907 806.079 241.409C805.149 241.901 804.412 242.584 803.868 243.46C803.333 244.326 803.066 245.314 803.066 246.425V262H799.285ZM816.074 262V237.387H819.855V262H816.074ZM817.997 233.285C817.26 233.285 816.624 233.034 816.09 232.532C815.566 232.03 815.305 231.426 815.305 230.721C815.305 230.016 815.566 229.413 816.09 228.911C816.624 228.409 817.26 228.158 817.997 228.158C818.734 228.158 819.364 228.409 819.887 228.911C820.422 229.413 820.689 230.016 820.689 230.721C820.689 231.426 820.422 232.03 819.887 232.532C819.364 233.034 818.734 233.285 817.997 233.285ZM836.781 262.513C834.473 262.513 832.486 261.968 830.82 260.878C829.153 259.789 827.871 258.288 826.974 256.376C826.077 254.463 825.628 252.279 825.628 249.822C825.628 247.322 826.087 245.116 827.006 243.204C827.935 241.281 829.228 239.78 830.884 238.701C832.55 237.612 834.495 237.067 836.717 237.067C838.447 237.067 840.007 237.387 841.396 238.028C842.784 238.669 843.922 239.567 844.809 240.72C845.695 241.874 846.245 243.22 846.459 244.758H842.677C842.389 243.637 841.748 242.643 840.755 241.778C839.772 240.902 838.447 240.464 836.781 240.464C835.306 240.464 834.014 240.848 832.903 241.618C831.803 242.376 830.943 243.45 830.323 244.838C829.714 246.216 829.41 247.835 829.41 249.694C829.41 251.595 829.709 253.251 830.307 254.661C830.916 256.071 831.771 257.166 832.871 257.946C833.982 258.726 835.285 259.116 836.781 259.116C837.763 259.116 838.655 258.945 839.457 258.603C840.258 258.261 840.936 257.77 841.492 257.129C842.047 256.488 842.442 255.719 842.677 254.821H846.459C846.245 256.274 845.717 257.583 844.873 258.747C844.039 259.901 842.934 260.82 841.556 261.503C840.188 262.176 838.597 262.513 836.781 262.513ZM867.498 251.937V237.387H871.28V262H867.498V257.834H867.242C866.665 259.084 865.768 260.147 864.55 261.023C863.332 261.888 861.794 262.32 859.935 262.32C858.397 262.32 857.03 261.984 855.833 261.311C854.637 260.627 853.697 259.602 853.013 258.234C852.329 256.856 851.987 255.12 851.987 253.027V237.387H855.769V252.77C855.769 254.565 856.271 255.996 857.275 257.065C858.29 258.133 859.583 258.667 861.153 258.667C862.093 258.667 863.049 258.427 864.021 257.946C865.004 257.465 865.827 256.728 866.489 255.735C867.162 254.741 867.498 253.475 867.498 251.937ZM881.988 229.183V262H878.206V229.183H881.988ZM899.618 237.387V240.592H886.863V237.387H899.618ZM890.581 231.491H894.363V254.949C894.363 256.018 894.517 256.819 894.827 257.353C895.148 257.877 895.554 258.229 896.045 258.411C896.547 258.582 897.076 258.667 897.631 258.667C898.048 258.667 898.39 258.646 898.657 258.603C898.924 258.55 899.138 258.507 899.298 258.475L900.067 261.872C899.811 261.968 899.453 262.064 898.993 262.16C898.534 262.267 897.952 262.32 897.247 262.32C896.179 262.32 895.132 262.091 894.106 261.631C893.091 261.172 892.247 260.472 891.574 259.532C890.912 258.592 890.581 257.406 890.581 255.975V231.491ZM920.818 251.937V237.387H924.6V262H920.818V257.834H920.562C919.985 259.084 919.087 260.147 917.87 261.023C916.652 261.888 915.113 262.32 913.255 262.32C911.716 262.32 910.349 261.984 909.153 261.311C907.956 260.627 907.016 259.602 906.332 258.234C905.649 256.856 905.307 255.12 905.307 253.027V237.387H909.088V252.77C909.088 254.565 909.591 255.996 910.595 257.065C911.61 258.133 912.902 258.667 914.473 258.667C915.413 258.667 916.369 258.427 917.341 257.946C918.324 257.465 919.146 256.728 919.808 255.735C920.481 254.741 920.818 253.475 920.818 251.937ZM931.526 262V237.387H935.179V241.105H935.436C935.884 239.887 936.696 238.899 937.871 238.14C939.046 237.382 940.371 237.003 941.845 237.003C942.123 237.003 942.47 237.008 942.887 237.019C943.304 237.029 943.619 237.045 943.832 237.067V240.913C943.704 240.881 943.41 240.832 942.951 240.768C942.502 240.694 942.027 240.656 941.525 240.656C940.328 240.656 939.26 240.907 938.32 241.409C937.391 241.901 936.654 242.584 936.109 243.46C935.575 244.326 935.308 245.314 935.308 246.425V262H931.526ZM955.558 262.577C953.998 262.577 952.583 262.283 951.311 261.696C950.04 261.097 949.031 260.237 948.283 259.116C947.535 257.983 947.161 256.616 947.161 255.014C947.161 253.603 947.439 252.46 947.995 251.584C948.55 250.698 949.292 250.003 950.222 249.501C951.151 248.999 952.177 248.625 953.298 248.38C954.431 248.123 955.568 247.92 956.712 247.771C958.207 247.578 959.42 247.434 960.349 247.338C961.289 247.231 961.973 247.055 962.4 246.809C962.838 246.564 963.057 246.136 963.057 245.527V245.399C963.057 243.818 962.624 242.59 961.759 241.714C960.904 240.838 959.606 240.4 957.865 240.4C956.06 240.4 954.644 240.795 953.619 241.586C952.593 242.376 951.872 243.22 951.456 244.117L947.866 242.835C948.507 241.34 949.362 240.175 950.43 239.342C951.509 238.498 952.684 237.911 953.955 237.58C955.237 237.238 956.498 237.067 957.737 237.067C958.528 237.067 959.436 237.163 960.461 237.355C961.497 237.537 962.496 237.916 963.458 238.493C964.43 239.07 965.236 239.94 965.877 241.105C966.518 242.269 966.839 243.829 966.839 245.784V262H963.057V258.667H962.865C962.608 259.201 962.181 259.773 961.583 260.382C960.985 260.99 960.189 261.509 959.195 261.936C958.202 262.363 956.989 262.577 955.558 262.577ZM956.135 259.18C957.63 259.18 958.891 258.886 959.916 258.298C960.952 257.711 961.732 256.952 962.256 256.023C962.79 255.094 963.057 254.116 963.057 253.091V249.63C962.897 249.822 962.544 249.998 961.999 250.158C961.465 250.308 960.846 250.441 960.141 250.559C959.446 250.666 958.768 250.762 958.106 250.847C957.454 250.922 956.925 250.986 956.519 251.04C955.536 251.168 954.618 251.376 953.763 251.665C952.919 251.942 952.235 252.364 951.712 252.93C951.199 253.486 950.943 254.244 950.943 255.206C950.943 256.52 951.429 257.513 952.401 258.186C953.384 258.849 954.628 259.18 956.135 259.18Z" fill="#006C5D"/>
<path d="M447.781 316.513C445.409 316.513 443.363 315.989 441.643 314.942C439.934 313.885 438.615 312.411 437.685 310.52C436.767 308.618 436.307 306.407 436.307 303.886C436.307 301.365 436.767 299.143 437.685 297.22C438.615 295.286 439.907 293.78 441.563 292.701C443.23 291.612 445.174 291.067 447.396 291.067C448.678 291.067 449.944 291.28 451.194 291.708C452.444 292.135 453.581 292.829 454.607 293.791C455.632 294.742 456.449 296.002 457.058 297.573C457.667 299.143 457.972 301.076 457.972 303.373V304.976H438.999V301.707H454.126C454.126 300.318 453.848 299.079 453.293 297.989C452.748 296.9 451.968 296.04 450.953 295.409C449.949 294.779 448.763 294.464 447.396 294.464C445.89 294.464 444.586 294.838 443.486 295.586C442.397 296.323 441.558 297.284 440.97 298.47C440.383 299.656 440.089 300.927 440.089 302.284V304.463C440.089 306.322 440.41 307.897 441.051 309.19C441.702 310.472 442.605 311.449 443.759 312.122C444.912 312.785 446.253 313.116 447.781 313.116C448.774 313.116 449.671 312.977 450.473 312.699C451.284 312.411 451.984 311.983 452.572 311.417C453.159 310.84 453.613 310.125 453.934 309.27L457.587 310.295C457.203 311.535 456.556 312.624 455.648 313.564C454.74 314.494 453.619 315.22 452.283 315.744C450.948 316.256 449.447 316.513 447.781 316.513ZM476.928 316V283.183H488.017C490.591 283.183 492.696 283.648 494.33 284.577C495.975 285.496 497.193 286.74 497.983 288.311C498.774 289.881 499.169 291.633 499.169 293.567C499.169 295.5 498.774 297.257 497.983 298.838C497.204 300.419 495.996 301.68 494.362 302.62C492.728 303.549 490.634 304.014 488.081 304.014H480.133V300.489H487.952C489.715 300.489 491.131 300.184 492.199 299.576C493.267 298.967 494.042 298.144 494.522 297.108C495.014 296.061 495.259 294.881 495.259 293.567C495.259 292.253 495.014 291.078 494.522 290.041C494.042 289.005 493.262 288.193 492.183 287.606C491.104 287.007 489.672 286.708 487.888 286.708H480.902V316H476.928ZM515.113 316.513C512.741 316.513 510.696 315.989 508.976 314.942C507.267 313.885 505.947 312.411 505.018 310.52C504.099 308.618 503.64 306.407 503.64 303.886C503.64 301.365 504.099 299.143 505.018 297.22C505.947 295.286 507.24 293.78 508.896 292.701C510.562 291.612 512.506 291.067 514.728 291.067C516.01 291.067 517.276 291.28 518.526 291.708C519.776 292.135 520.914 292.829 521.939 293.791C522.965 294.742 523.782 296.002 524.391 297.573C525 299.143 525.304 301.076 525.304 303.373V304.976H506.332V301.707H521.458C521.458 300.318 521.181 299.079 520.625 297.989C520.08 296.9 519.301 296.04 518.286 295.409C517.282 294.779 516.096 294.464 514.728 294.464C513.222 294.464 511.919 294.838 510.819 295.586C509.729 296.323 508.89 297.284 508.303 298.47C507.715 299.656 507.421 300.927 507.421 302.284V304.463C507.421 306.322 507.742 307.897 508.383 309.19C509.035 310.472 509.937 311.449 511.091 312.122C512.245 312.785 513.585 313.116 515.113 313.116C516.106 313.116 517.004 312.977 517.805 312.699C518.617 312.411 519.317 311.983 519.904 311.417C520.492 310.84 520.946 310.125 521.266 309.27L524.92 310.295C524.535 311.535 523.889 312.624 522.981 313.564C522.073 314.494 520.951 315.22 519.616 315.744C518.28 316.256 516.779 316.513 515.113 316.513ZM541.056 316.513C538.748 316.513 536.761 315.968 535.095 314.878C533.428 313.789 532.146 312.288 531.249 310.376C530.352 308.463 529.903 306.279 529.903 303.822C529.903 301.322 530.362 299.116 531.281 297.204C532.21 295.281 533.503 293.78 535.159 292.701C536.825 291.612 538.77 291.067 540.992 291.067C542.722 291.067 544.282 291.387 545.671 292.028C547.059 292.669 548.197 293.567 549.084 294.72C549.97 295.874 550.52 297.22 550.734 298.758H546.952C546.664 297.637 546.023 296.643 545.03 295.778C544.047 294.902 542.722 294.464 541.056 294.464C539.581 294.464 538.289 294.848 537.178 295.618C536.078 296.376 535.218 297.45 534.598 298.838C533.989 300.216 533.685 301.835 533.685 303.694C533.685 305.595 533.984 307.251 534.582 308.661C535.191 310.071 536.046 311.166 537.146 311.946C538.257 312.726 539.56 313.116 541.056 313.116C542.038 313.116 542.93 312.945 543.732 312.603C544.533 312.261 545.211 311.77 545.767 311.129C546.322 310.488 546.717 309.719 546.952 308.821H550.734C550.52 310.274 549.992 311.583 549.148 312.747C548.314 313.901 547.209 314.82 545.831 315.503C544.463 316.176 542.872 316.513 541.056 316.513ZM571.773 305.937V291.387H575.555V316H571.773V311.834H571.517C570.94 313.084 570.043 314.147 568.825 315.023C567.607 315.888 566.069 316.32 564.21 316.32C562.672 316.32 561.305 315.984 560.108 315.311C558.912 314.627 557.972 313.602 557.288 312.234C556.604 310.856 556.262 309.12 556.262 307.027V291.387H560.044V306.77C560.044 308.565 560.546 309.996 561.55 311.065C562.565 312.133 563.858 312.667 565.428 312.667C566.368 312.667 567.324 312.427 568.296 311.946C569.279 311.465 570.102 310.728 570.764 309.735C571.437 308.741 571.773 307.475 571.773 305.937ZM589.724 316.577C588.165 316.577 586.749 316.283 585.478 315.696C584.207 315.097 583.197 314.237 582.449 313.116C581.702 311.983 581.328 310.616 581.328 309.014C581.328 307.603 581.605 306.46 582.161 305.584C582.716 304.698 583.459 304.003 584.388 303.501C585.318 302.999 586.343 302.625 587.465 302.38C588.597 302.123 589.735 301.92 590.878 301.771C592.374 301.578 593.586 301.434 594.515 301.338C595.455 301.231 596.139 301.055 596.566 300.809C597.004 300.564 597.223 300.136 597.223 299.527V299.399C597.223 297.818 596.791 296.59 595.925 295.714C595.071 294.838 593.773 294.4 592.032 294.4C590.226 294.4 588.811 294.795 587.785 295.586C586.76 296.376 586.039 297.22 585.622 298.117L582.033 296.835C582.674 295.34 583.528 294.175 584.597 293.342C585.676 292.498 586.851 291.911 588.122 291.58C589.404 291.238 590.664 291.067 591.903 291.067C592.694 291.067 593.602 291.163 594.628 291.355C595.664 291.537 596.663 291.916 597.624 292.493C598.596 293.07 599.403 293.94 600.044 295.105C600.685 296.269 601.005 297.829 601.005 299.784V316H597.223V312.667H597.031C596.775 313.201 596.347 313.773 595.749 314.382C595.151 314.99 594.355 315.509 593.362 315.936C592.368 316.363 591.156 316.577 589.724 316.577ZM590.301 313.18C591.797 313.18 593.057 312.886 594.083 312.298C595.119 311.711 595.899 310.952 596.422 310.023C596.956 309.094 597.223 308.116 597.223 307.091V303.63C597.063 303.822 596.711 303.998 596.166 304.158C595.632 304.308 595.012 304.441 594.307 304.559C593.613 304.666 592.934 304.762 592.272 304.847C591.62 304.922 591.092 304.986 590.686 305.04C589.703 305.168 588.784 305.376 587.93 305.665C587.086 305.942 586.402 306.364 585.878 306.93C585.366 307.486 585.109 308.244 585.109 309.206C585.109 310.52 585.595 311.513 586.568 312.186C587.55 312.849 588.795 313.18 590.301 313.18ZM590.429 288.054L594.339 280.619H598.762L593.762 288.054H590.429ZM607.907 316V291.387H611.561V295.105H611.817C612.266 293.887 613.078 292.899 614.253 292.14C615.428 291.382 616.753 291.003 618.227 291.003C618.504 291.003 618.852 291.008 619.268 291.019C619.685 291.029 620 291.045 620.214 291.067V294.913C620.086 294.881 619.792 294.832 619.332 294.768C618.884 294.694 618.408 294.656 617.906 294.656C616.71 294.656 615.642 294.907 614.701 295.409C613.772 295.901 613.035 296.584 612.49 297.46C611.956 298.326 611.689 299.314 611.689 300.425V316H607.907ZM624.696 316V291.387H628.478V316H624.696ZM626.619 287.285C625.882 287.285 625.247 287.034 624.712 286.532C624.189 286.03 623.927 285.426 623.927 284.721C623.927 284.016 624.189 283.413 624.712 282.911C625.247 282.409 625.882 282.158 626.619 282.158C627.356 282.158 627.987 282.409 628.51 282.911C629.044 283.413 629.311 284.016 629.311 284.721C629.311 285.426 629.044 286.03 628.51 286.532C627.987 287.034 627.356 287.285 626.619 287.285ZM642.647 316.577C641.087 316.577 639.672 316.283 638.401 315.696C637.13 315.097 636.12 314.237 635.372 313.116C634.625 311.983 634.251 310.616 634.251 309.014C634.251 307.603 634.528 306.46 635.084 305.584C635.639 304.698 636.382 304.003 637.311 303.501C638.241 302.999 639.266 302.625 640.388 302.38C641.52 302.123 642.658 301.92 643.801 301.771C645.296 301.578 646.509 301.434 647.438 301.338C648.378 301.231 649.062 301.055 649.489 300.809C649.927 300.564 650.146 300.136 650.146 299.527V299.399C650.146 297.818 649.714 296.59 648.848 295.714C647.994 294.838 646.696 294.4 644.955 294.4C643.149 294.4 641.734 294.795 640.708 295.586C639.683 296.376 638.962 297.22 638.545 298.117L634.956 296.835C635.597 295.34 636.451 294.175 637.52 293.342C638.598 292.498 639.774 291.911 641.045 291.58C642.327 291.238 643.587 291.067 644.826 291.067C645.617 291.067 646.525 291.163 647.55 291.355C648.587 291.537 649.586 291.916 650.547 292.493C651.519 293.07 652.326 293.94 652.967 295.105C653.607 296.269 653.928 297.829 653.928 299.784V316H650.146V312.667H649.954C649.698 313.201 649.27 313.773 648.672 314.382C648.074 314.99 647.278 315.509 646.285 315.936C645.291 316.363 644.079 316.577 642.647 316.577ZM643.224 313.18C644.72 313.18 645.98 312.886 647.006 312.298C648.042 311.711 648.822 310.952 649.345 310.023C649.879 309.094 650.146 308.116 650.146 307.091V303.63C649.986 303.822 649.634 303.998 649.089 304.158C648.555 304.308 647.935 304.441 647.23 304.559C646.536 304.666 645.857 304.762 645.195 304.847C644.543 304.922 644.015 304.986 643.609 305.04C642.626 305.168 641.707 305.376 640.852 305.665C640.009 305.942 639.325 306.364 638.801 306.93C638.289 307.486 638.032 308.244 638.032 309.206C638.032 310.52 638.518 311.513 639.49 312.186C640.473 312.849 641.718 313.18 643.224 313.18ZM687.622 297.829V301.354H673.265V297.829H687.622ZM707.48 316V283.183H718.953C721.239 283.183 723.124 283.578 724.609 284.369C726.094 285.149 727.2 286.201 727.926 287.526C728.653 288.839 729.016 290.298 729.016 291.9C729.016 293.31 728.765 294.475 728.263 295.393C727.771 296.312 727.12 297.038 726.308 297.573C725.507 298.107 724.636 298.502 723.696 298.758V299.079C724.7 299.143 725.71 299.495 726.725 300.136C727.739 300.777 728.589 301.696 729.272 302.892C729.956 304.089 730.298 305.552 730.298 307.283C730.298 308.928 729.924 310.408 729.176 311.722C728.428 313.036 727.248 314.077 725.635 314.846C724.022 315.615 721.923 316 719.337 316H707.48ZM711.454 312.475H719.337C721.933 312.475 723.776 311.973 724.866 310.968C725.966 309.954 726.516 308.725 726.516 307.283C726.516 306.172 726.233 305.146 725.667 304.206C725.101 303.256 724.294 302.497 723.247 301.931C722.2 301.354 720.961 301.066 719.53 301.066H711.454V312.475ZM711.454 297.605H718.825C720.021 297.605 721.1 297.37 722.062 296.9C723.034 296.429 723.803 295.767 724.369 294.913C724.946 294.058 725.234 293.054 725.234 291.9C725.234 290.458 724.732 289.235 723.728 288.231C722.724 287.216 721.132 286.708 718.953 286.708H711.454V297.605ZM743.558 316.577C741.998 316.577 740.583 316.283 739.311 315.696C738.04 315.097 737.031 314.237 736.283 313.116C735.535 311.983 735.161 310.616 735.161 309.014C735.161 307.603 735.439 306.46 735.994 305.584C736.55 304.698 737.292 304.003 738.222 303.501C739.151 302.999 740.177 302.625 741.298 302.38C742.431 302.123 743.568 301.92 744.711 301.771C746.207 301.578 747.419 301.434 748.349 301.338C749.289 301.231 749.973 301.055 750.4 300.809C750.838 300.564 751.057 300.136 751.057 299.527V299.399C751.057 297.818 750.624 296.59 749.759 295.714C748.904 294.838 747.606 294.4 745.865 294.4C744.06 294.4 742.644 294.795 741.619 295.586C740.593 296.376 739.872 297.22 739.456 298.117L735.866 296.835C736.507 295.34 737.362 294.175 738.43 293.342C739.509 292.498 740.684 291.911 741.955 291.58C743.237 291.238 744.498 291.067 745.737 291.067C746.527 291.067 747.435 291.163 748.461 291.355C749.497 291.537 750.496 291.916 751.457 292.493C752.43 293.07 753.236 293.94 753.877 295.105C754.518 296.269 754.838 297.829 754.838 299.784V316H751.057V312.667H750.865C750.608 313.201 750.181 313.773 749.583 314.382C748.984 314.99 748.189 315.509 747.195 315.936C746.202 316.363 744.989 316.577 743.558 316.577ZM744.134 313.18C745.63 313.18 746.891 312.886 747.916 312.298C748.952 311.711 749.732 310.952 750.256 310.023C750.79 309.094 751.057 308.116 751.057 307.091V303.63C750.897 303.822 750.544 303.998 749.999 304.158C749.465 304.308 748.846 304.441 748.14 304.559C747.446 304.666 746.768 304.762 746.105 304.847C745.454 304.922 744.925 304.986 744.519 305.04C743.536 305.168 742.618 305.376 741.763 305.665C740.919 305.942 740.235 306.364 739.712 306.93C739.199 307.486 738.943 308.244 738.943 309.206C738.943 310.52 739.429 311.513 740.401 312.186C741.384 312.849 742.628 313.18 744.134 313.18ZM765.522 301.194V316H761.741V283.183H765.522V295.233H765.843C766.42 293.962 767.285 292.952 768.439 292.205C769.603 291.446 771.152 291.067 773.086 291.067C774.763 291.067 776.232 291.403 777.492 292.076C778.753 292.739 779.73 293.759 780.425 295.137C781.13 296.504 781.482 298.246 781.482 300.361V316H777.701V300.617C777.701 298.662 777.193 297.151 776.178 296.082C775.174 295.003 773.78 294.464 771.996 294.464C770.757 294.464 769.646 294.726 768.663 295.249C767.691 295.773 766.922 296.536 766.356 297.54C765.8 298.545 765.522 299.762 765.522 301.194ZM788.4 316V291.387H792.182V316H788.4ZM790.323 287.285C789.586 287.285 788.951 287.034 788.417 286.532C787.893 286.03 787.631 285.426 787.631 284.721C787.631 284.016 787.893 283.413 788.417 282.911C788.951 282.409 789.586 282.158 790.323 282.158C791.06 282.158 791.691 282.409 792.214 282.911C792.748 283.413 793.015 284.016 793.015 284.721C793.015 285.426 792.748 286.03 792.214 286.532C791.691 287.034 791.06 287.285 790.323 287.285ZM806.351 316.577C804.792 316.577 803.376 316.283 802.105 315.696C800.834 315.097 799.824 314.237 799.076 313.116C798.329 311.983 797.955 310.616 797.955 309.014C797.955 307.603 798.232 306.46 798.788 305.584C799.343 304.698 800.086 304.003 801.015 303.501C801.945 302.999 802.97 302.625 804.092 302.38C805.224 302.123 806.362 301.92 807.505 301.771C809.001 301.578 810.213 301.434 811.142 301.338C812.082 301.231 812.766 301.055 813.193 300.809C813.631 300.564 813.85 300.136 813.85 299.527V299.399C813.85 297.818 813.418 296.59 812.553 295.714C811.698 294.838 810.4 294.4 808.659 294.4C806.853 294.4 805.438 294.795 804.412 295.586C803.387 296.376 802.666 297.22 802.249 298.117L798.66 296.835C799.301 295.34 800.155 294.175 801.224 293.342C802.303 292.498 803.478 291.911 804.749 291.58C806.031 291.238 807.291 291.067 808.531 291.067C809.321 291.067 810.229 291.163 811.255 291.355C812.291 291.537 813.29 291.916 814.251 292.493C815.223 293.07 816.03 293.94 816.671 295.105C817.312 296.269 817.632 297.829 817.632 299.784V316H813.85V312.667H813.658C813.402 313.201 812.974 313.773 812.376 314.382C811.778 314.99 810.982 315.509 809.989 315.936C808.995 316.363 807.783 316.577 806.351 316.577ZM806.928 313.18C808.424 313.18 809.684 312.886 810.71 312.298C811.746 311.711 812.526 310.952 813.049 310.023C813.583 309.094 813.85 308.116 813.85 307.091V303.63C813.69 303.822 813.338 303.998 812.793 304.158C812.259 304.308 811.639 304.441 810.934 304.559C810.24 304.666 809.561 304.762 808.899 304.847C808.247 304.922 807.719 304.986 807.313 305.04C806.33 305.168 805.411 305.376 804.557 305.665C803.713 305.942 803.029 306.364 802.506 306.93C801.993 307.486 801.736 308.244 801.736 309.206C801.736 310.52 802.222 311.513 803.195 312.186C804.177 312.849 805.422 313.18 806.928 313.18Z" fill="#006C5D"/>
<path d="M7.5 113C3.35586 124.859 2.1113 131.773 1.5 144.5C79 166.5 132 232 137.5 314C139.356 280.925 141.401 262.69 151 232C119 164.5 64.5 125 7.5 113Z" fill="#006C5D"/>
<path d="M1.15845 182C2.44884 196.541 3.36966 204.75 7.32216 220.056C47.5942 244.383 61.1131 264.907 69.4973 313.609C71.8107 278.091 73.9671 262.834 79.1248 242.692C50.7773 203.502 33.0247 195.239 1.15845 182Z" fill="#006C5D"/>
<path d="M21 79C146 119.5 214 222.5 205 354C218.706 352.839 225.945 351.515 238 348C239.5 330.5 239.5 231.5 193.5 167.5C131 72 39 50 39 50L21 79Z" fill="#006C5D"/>
<path d="M305.5 314L273 335C275 205 211.5 82.5 66.5 22.5C78.5823 11.6713 85.6046 6.81565 98.5 0C232.5 62.5 299 179.5 305.5 314Z" fill="#006C5D"/>
<path d="M354 79C229 119.5 161 222.5 170 354C156.294 352.839 149.055 351.515 137 348C135.5 330.5 135.5 231.5 181.5 167.5C244 72 336 50 336 50L354 79Z" fill="#01B655"/>
<path d="M69.5 314L102 335C100 205 163.5 82.5 308.5 22.5C296.418 11.6713 289.395 6.81565 276.5 0C142.5 62.5 76 179.5 69.5 314Z" fill="#01B655"/>
<path d="M367.5 113C371.644 124.859 372.889 131.773 373.5 144.5C296 166.5 243 232 237.5 314C235.644 280.925 233.599 262.69 224 232C256 164.5 310.5 125 367.5 113Z" fill="#01B655"/>
<path d="M374.307 182.479C372.944 197.013 371.983 205.217 367.955 220.504C327.562 244.63 313.942 265.088 305.316 313.748C303.179 278.219 301.098 262.95 296.041 242.783C324.582 203.734 342.375 195.56 374.307 182.479Z" fill="#01B655"/>
</svg>
